<?xml version="1.0" encoding="UTF-8"?>
<!DOCTYPE svg PUBLIC "-//W3C//DTD SVG 1.1//EN" "http://www.w3.org/Graphics/SVG/1.1/DTD/svg11.dtd">
<svg version="1.1" xmlns="http://www.w3.org/2000/svg" xmlns:xlink="http://www.w3.org/1999/xlink" x="0" y="0" width="50" height="50" viewBox="0, 0, 50, 50">
  <g id="Brightness_Icon">
    <path d="M15.979,9.369 C15.951,9.374 15.922,9.382 15.896,9.389 C15.587,9.46 15.369,9.737 15.377,10.054 L15.377,12.713 C15.374,12.952 15.499,13.176 15.706,13.298 C15.914,13.417 16.169,13.417 16.376,13.298 C16.584,13.176 16.709,12.952 16.706,12.713 L16.706,10.054 C16.714,9.862 16.636,9.678 16.498,9.548 C16.358,9.415 16.169,9.35 15.979,9.369 z M6.09,13.461 C6.07,13.466 6.049,13.474 6.028,13.482 C5.789,13.531 5.597,13.711 5.527,13.944 C5.457,14.178 5.522,14.432 5.696,14.604 L7.586,16.494 C7.747,16.692 8.004,16.783 8.254,16.725 C8.5,16.668 8.695,16.474 8.752,16.227 C8.809,15.978 8.718,15.72 8.521,15.559 L6.631,13.669 C6.506,13.537 6.334,13.464 6.153,13.461 C6.132,13.461 6.111,13.461 6.09,13.461 z M25.847,13.461 C25.818,13.466 25.79,13.474 25.764,13.482 C25.644,13.513 25.538,13.578 25.452,13.669 L23.562,15.559 C23.364,15.72 23.274,15.978 23.331,16.227 C23.388,16.474 23.583,16.668 23.829,16.725 C24.079,16.783 24.336,16.692 24.497,16.494 L26.387,14.604 C26.595,14.406 26.655,14.097 26.533,13.838 C26.408,13.575 26.133,13.425 25.847,13.461 z M16.041,14.708 C10.91,14.708 6.734,18.883 6.734,24.015 C6.734,27.266 8.191,29.45 9.56,31.057 C10.245,31.86 10.907,32.54 11.367,33.135 C11.827,33.729 12.053,34.205 12.053,34.651 L12.053,36.999 C11.964,37.183 11.964,37.396 12.053,37.58 L12.053,37.975 C12.053,39.068 12.954,39.97 14.047,39.97 L14.566,39.97 C14.933,40.375 15.455,40.634 16.041,40.634 C16.628,40.634 17.15,40.375 17.516,39.97 L18.036,39.97 C19.129,39.97 20.03,39.068 20.03,37.975 L20.03,37.435 C20.048,37.347 20.048,37.253 20.03,37.165 L20.03,34.651 C20.03,34.205 20.256,33.724 20.716,33.135 C21.175,32.545 21.838,31.878 22.523,31.078 C23.892,29.478 25.348,27.294 25.348,24.015 C25.348,18.883 21.173,14.708 16.041,14.708 z M16.041,16.037 C20.456,16.037 24.019,19.6 24.019,24.015 C24.019,26.913 22.817,28.72 21.526,30.226 C20.882,30.979 20.214,31.636 19.677,32.325 C19.282,32.831 18.999,33.384 18.846,33.986 L13.237,33.986 C13.084,33.384 12.801,32.834 12.406,32.325 C11.868,31.631 11.201,30.964 10.557,30.206 C9.266,28.692 8.064,26.882 8.064,24.015 C8.064,19.6 11.627,16.037 16.041,16.037 z M1.894,23.35 C1.528,23.402 1.271,23.742 1.323,24.108 C1.375,24.474 1.715,24.731 2.081,24.679 L4.74,24.679 C4.979,24.682 5.202,24.557 5.324,24.35 C5.444,24.142 5.444,23.887 5.324,23.68 C5.202,23.472 4.979,23.347 4.74,23.35 L2.081,23.35 C2.06,23.35 2.039,23.35 2.019,23.35 C1.998,23.35 1.977,23.35 1.956,23.35 C1.935,23.35 1.915,23.35 1.894,23.35 z M27.156,23.35 C26.79,23.402 26.533,23.742 26.584,24.108 C26.636,24.474 26.977,24.731 27.343,24.679 L30.002,24.679 C30.241,24.682 30.464,24.557 30.586,24.35 C30.706,24.142 30.706,23.887 30.586,23.68 C30.464,23.472 30.241,23.347 30.002,23.35 L27.343,23.35 C27.322,23.35 27.301,23.35 27.28,23.35 C27.26,23.35 27.239,23.35 27.218,23.35 C27.197,23.35 27.177,23.35 27.156,23.35 z M7.981,31.327 C7.83,31.348 7.69,31.423 7.586,31.535 L5.696,33.426 C5.498,33.587 5.407,33.844 5.465,34.093 C5.522,34.34 5.716,34.534 5.963,34.592 C6.212,34.649 6.47,34.558 6.631,34.36 L8.521,32.47 C8.718,32.28 8.778,31.987 8.672,31.735 C8.568,31.483 8.316,31.322 8.043,31.327 C8.022,31.327 8.002,31.327 7.981,31.327 z M23.894,31.327 C23.645,31.371 23.445,31.553 23.375,31.795 C23.305,32.039 23.377,32.299 23.562,32.47 L25.452,34.36 C25.613,34.558 25.87,34.649 26.12,34.592 C26.366,34.534 26.561,34.34 26.618,34.093 C26.675,33.844 26.584,33.587 26.387,33.426 L24.497,31.535 C24.372,31.403 24.201,31.33 24.019,31.327 C23.998,31.327 23.977,31.327 23.957,31.327 C23.936,31.327 23.915,31.327 23.894,31.327 z M13.382,35.316 L18.701,35.316 L18.701,36.646 L15.377,36.646 C15.356,36.646 15.335,36.646 15.314,36.646 C15.294,36.646 15.273,36.646 15.252,36.646 C14.886,36.679 14.616,37.007 14.65,37.373 C14.683,37.739 15.01,38.009 15.377,37.975 L18.701,37.975 C18.701,38.352 18.412,38.64 18.036,38.64 L14.047,38.64 C13.671,38.64 13.382,38.352 13.382,37.975 C13.621,37.978 13.844,37.853 13.967,37.645 C14.086,37.438 14.086,37.183 13.967,36.975 C13.844,36.768 13.621,36.643 13.382,36.646 z" fill="#000000" id="Bulb_Symbol"/>
  </g>
  <g id="Temperature_Icon" display="none">
    <path d="M10.908,4.311 C10.888,4.314 10.868,4.32 10.85,4.325 C10.637,4.374 10.486,4.566 10.491,4.785 L10.491,7.543 C10.49,7.708 10.576,7.863 10.719,7.947 C10.863,8.03 11.039,8.03 11.183,7.947 C11.326,7.863 11.413,7.708 11.411,7.543 L11.411,4.785 C11.416,4.652 11.362,4.524 11.267,4.435 C11.17,4.343 11.039,4.298 10.908,4.311 z M4.357,7.012 C4.184,7.042 4.046,7.168 3.998,7.335 C3.949,7.504 3.999,7.683 4.127,7.802 L6.081,9.756 C6.192,9.892 6.37,9.955 6.542,9.915 C6.713,9.876 6.848,9.741 6.887,9.571 C6.927,9.398 6.864,9.22 6.727,9.109 L4.773,7.155 C4.678,7.053 4.54,7.001 4.4,7.012 C4.386,7.012 4.371,7.012 4.357,7.012 z M17.402,7.012 C17.297,7.026 17.2,7.078 17.129,7.155 L15.175,9.109 C15.038,9.22 14.975,9.398 15.015,9.571 C15.054,9.741 15.189,9.876 15.36,9.915 C15.532,9.955 15.71,9.892 15.821,9.756 L17.775,7.802 C17.919,7.665 17.96,7.452 17.876,7.272 C17.789,7.091 17.599,6.987 17.402,7.012 z M10.908,9.382 C10.894,9.386 10.879,9.391 10.865,9.396 C10.836,9.398 10.807,9.404 10.779,9.411 C10.773,9.416 10.77,9.42 10.764,9.425 C8.326,9.529 6.354,11.516 6.354,13.979 C6.354,16.51 8.421,18.577 10.951,18.577 C13.481,18.577 15.548,16.51 15.548,13.979 C15.548,11.525 13.593,9.546 11.167,9.425 C11.15,9.425 11.14,9.411 11.123,9.411 C11.077,9.393 11.028,9.384 10.98,9.382 C10.971,9.382 10.96,9.382 10.951,9.382 C10.937,9.382 10.922,9.382 10.908,9.382 z M10.922,10.302 C10.931,10.302 10.942,10.302 10.951,10.302 C10.965,10.302 10.98,10.302 10.994,10.302 C13.005,10.325 14.629,11.963 14.629,13.979 C14.629,16.012 12.984,17.657 10.951,17.657 C8.92,17.657 7.273,16.012 7.273,13.979 C7.273,11.957 8.904,10.318 10.922,10.302 z M1.627,13.52 C1.374,13.556 1.196,13.791 1.232,14.044 C1.268,14.297 1.503,14.475 1.757,14.439 L4.515,14.439 C4.68,14.441 4.835,14.355 4.919,14.211 C5.002,14.067 5.002,13.891 4.919,13.748 C4.835,13.604 4.68,13.518 4.515,13.52 L1.757,13.52 C1.742,13.52 1.728,13.52 1.713,13.52 C1.699,13.52 1.685,13.52 1.67,13.52 C1.656,13.52 1.642,13.52 1.627,13.52 z M17.258,13.52 C17.005,13.556 16.827,13.791 16.863,14.044 C16.899,14.297 17.134,14.475 17.387,14.439 L20.146,14.439 C20.311,14.441 20.465,14.355 20.55,14.211 C20.632,14.067 20.632,13.891 20.55,13.748 C20.465,13.604 20.311,13.518 20.146,13.52 L17.387,13.52 C17.373,13.52 17.358,13.52 17.344,13.52 C17.33,13.52 17.315,13.52 17.301,13.52 C17.287,13.52 17.272,13.52 17.258,13.52 z M6.354,18.059 C6.25,18.074 6.153,18.126 6.081,18.203 L4.127,20.157 C3.99,20.268 3.928,20.446 3.967,20.618 C4.007,20.789 4.141,20.924 4.312,20.963 C4.484,21.003 4.662,20.94 4.773,20.803 L6.727,18.85 C6.864,18.719 6.905,18.516 6.831,18.341 C6.76,18.167 6.585,18.056 6.397,18.059 C6.383,18.059 6.368,18.059 6.354,18.059 z M15.405,18.059 C15.232,18.09 15.094,18.216 15.045,18.383 C14.997,18.552 15.047,18.731 15.175,18.85 L17.129,20.803 C17.24,20.94 17.418,21.003 17.59,20.963 C17.761,20.924 17.895,20.789 17.935,20.618 C17.974,20.446 17.912,20.268 17.775,20.157 L15.821,18.203 C15.735,18.112 15.617,18.061 15.491,18.059 C15.476,18.059 15.462,18.059 15.448,18.059 C15.433,18.059 15.419,18.059 15.405,18.059 z M10.908,19.941 C10.888,19.945 10.868,19.95 10.85,19.956 C10.637,20.004 10.486,20.196 10.491,20.416 L10.491,23.174 C10.49,23.339 10.576,23.494 10.719,23.578 C10.863,23.661 11.039,23.661 11.183,23.578 C11.326,23.494 11.413,23.339 11.411,23.174 L11.411,20.416 C11.416,20.283 11.362,20.155 11.267,20.065 C11.17,19.974 11.039,19.929 10.908,19.941 z" fill="#000000" id="Sun_Symbol"/>
    <path d="M24.113,30.075 C19.725,32.608 18.218,38.231 20.752,42.619 C23.285,47.006 28.908,48.513 33.296,45.98 C34.427,45.327 35.364,44.466 36.093,43.477 C36.196,43.337 36.206,43.15 36.119,42.999 C36.032,42.848 35.864,42.763 35.692,42.782 C32.511,43.139 29.273,41.636 27.568,38.683 C25.863,35.731 26.181,32.175 28.08,29.599 C28.183,29.459 28.193,29.271 28.106,29.12 C28.019,28.97 27.852,28.885 27.679,28.903 C26.458,29.04 25.244,29.422 24.113,30.075 z M24.55,30.832 C25.302,30.398 26.097,30.14 26.904,29.962 C25.31,32.713 25.109,36.174 26.811,39.121 C28.512,42.067 31.61,43.624 34.788,43.619 C34.231,44.229 33.61,44.789 32.858,45.223 C28.881,47.519 23.806,46.159 21.509,42.182 C19.212,38.204 20.572,33.129 24.55,30.832 z" fill="#000000" id="Moon_Symbol"/>
    <path d="M11.212,32.9 L27.701,20.383" fill-opacity="0" stroke="#000000" stroke-width="1"/>
  </g>
  <g id="Meter">
    <path d="M42.332,2.022 L48.692,2.101" fill-opacity="0" stroke="#000000" stroke-width="1"/>
    <path d="M42.332,24.961 L48.692,25.039" fill-opacity="0" stroke="#000000" stroke-width="1"/>
    <path d="M43.981,6.65 L48.692,6.678" fill-opacity="0" stroke="#000000" stroke-width="1"/>
    <path d="M43.981,11.228 L48.692,11.256" fill-opacity="0" stroke="#000000" stroke-width="1"/>
    <path d="M43.981,15.805 L48.692,15.834" fill-opacity="0" stroke="#000000" stroke-width="1"/>
    <path d="M43.981,20.383 L48.692,20.411" fill-opacity="0" stroke="#000000" stroke-width="1"/>
    <path d="M42.332,47.899 L48.692,47.978" fill-opacity="0" stroke="#000000" stroke-width="1"/>
    <path d="M43.981,29.589 L48.692,29.617" fill-opacity="0" stroke="#000000" stroke-width="1"/>
    <path d="M43.981,34.166 L48.692,34.194" fill-opacity="0" stroke="#000000" stroke-width="1"/>
    <path d="M43.981,38.744 L48.692,38.772" fill-opacity="0" stroke="#000000" stroke-width="1"/>
    <path d="M43.981,43.322 L48.692,43.35" fill-opacity="0" stroke="#000000" stroke-width="1"/>
  </g>
</svg>
