<?xml version="1.0" encoding="UTF-8"?>
<!DOCTYPE svg PUBLIC "-//W3C//DTD SVG 1.1//EN" "http://www.w3.org/Graphics/SVG/1.1/DTD/svg11.dtd">
<svg version="1.1" xmlns="http://www.w3.org/2000/svg" xmlns:xlink="http://www.w3.org/1999/xlink" x="0" y="0" width="50" height="50" viewBox="0, 0, 50, 50">
  <g id="Brightness_Icon" display="none">
    <path d="M18.729,5.6 C18.693,5.607 18.658,5.617 18.626,5.626 C18.242,5.713 17.971,6.058 17.981,6.451 L17.981,9.751 C17.978,10.048 18.132,10.325 18.39,10.477 C18.648,10.625 18.964,10.625 19.222,10.477 C19.48,10.325 19.634,10.048 19.631,9.751 L19.631,6.451 C19.641,6.213 19.544,5.984 19.373,5.823 C19.199,5.658 18.964,5.578 18.729,5.6 z M6.456,10.68 C6.43,10.686 6.405,10.696 6.379,10.705 C6.082,10.767 5.844,10.989 5.757,11.279 C5.67,11.569 5.75,11.885 5.966,12.098 L8.313,14.444 C8.512,14.689 8.831,14.802 9.141,14.731 C9.447,14.66 9.689,14.418 9.76,14.112 C9.83,13.803 9.718,13.483 9.473,13.284 L7.127,10.937 C6.972,10.773 6.759,10.683 6.534,10.68 C6.508,10.68 6.482,10.68 6.456,10.68 z M30.975,10.68 C30.94,10.686 30.905,10.696 30.872,10.705 C30.724,10.744 30.592,10.825 30.486,10.937 L28.139,13.284 C27.894,13.483 27.782,13.803 27.853,14.112 C27.923,14.418 28.165,14.66 28.471,14.731 C28.781,14.802 29.1,14.689 29.3,14.444 L31.646,12.098 C31.904,11.853 31.978,11.469 31.826,11.147 C31.672,10.821 31.33,10.634 30.975,10.68 z M18.806,12.227 C12.438,12.227 7.255,17.409 7.255,23.777 C7.255,27.812 9.063,30.523 10.762,32.517 C11.613,33.513 12.435,34.358 13.005,35.096 C13.575,35.834 13.856,36.424 13.856,36.978 L13.856,39.891 C13.746,40.12 13.746,40.384 13.856,40.613 L13.856,41.103 C13.856,42.46 14.974,43.578 16.331,43.578 L16.975,43.578 C17.43,44.081 18.078,44.403 18.806,44.403 C19.534,44.403 20.182,44.081 20.637,43.578 L21.281,43.578 C22.638,43.578 23.756,42.46 23.756,41.103 L23.756,40.433 C23.779,40.323 23.779,40.207 23.756,40.098 L23.756,36.978 C23.756,36.424 24.037,35.827 24.607,35.096 C25.178,34.364 25.999,33.536 26.85,32.543 C28.549,30.558 30.357,27.848 30.357,23.777 C30.357,17.409 25.174,12.227 18.806,12.227 z M18.806,13.877 C24.285,13.877 28.707,18.298 28.707,23.777 C28.707,27.374 27.214,29.617 25.613,31.486 C24.813,32.421 23.985,33.236 23.318,34.09 C22.828,34.719 22.477,35.405 22.287,36.153 L15.325,36.153 C15.135,35.405 14.784,34.722 14.294,34.09 C13.627,33.23 12.799,32.401 11.999,31.46 C10.398,29.582 8.906,27.335 8.906,23.777 C8.906,18.298 13.327,13.877 18.806,13.877 z M1.248,22.952 C0.794,23.017 0.475,23.439 0.539,23.893 C0.604,24.348 1.026,24.667 1.48,24.602 L4.78,24.602 C5.077,24.605 5.354,24.451 5.505,24.193 C5.654,23.935 5.654,23.619 5.505,23.361 C5.354,23.104 5.077,22.949 4.78,22.952 L1.48,22.952 C1.454,22.952 1.429,22.952 1.403,22.952 C1.377,22.952 1.351,22.952 1.325,22.952 C1.3,22.952 1.274,22.952 1.248,22.952 z M32.6,22.952 C32.145,23.017 31.826,23.439 31.891,23.893 C31.955,24.348 32.377,24.667 32.832,24.602 L36.132,24.602 C36.428,24.605 36.706,24.451 36.857,24.193 C37.005,23.935 37.005,23.619 36.857,23.361 C36.706,23.104 36.428,22.949 36.132,22.952 L32.832,22.952 C32.806,22.952 32.78,22.952 32.754,22.952 C32.729,22.952 32.703,22.952 32.677,22.952 C32.651,22.952 32.626,22.952 32.6,22.952 z M8.802,32.853 C8.615,32.878 8.441,32.972 8.313,33.111 L5.966,35.457 C5.721,35.657 5.609,35.976 5.679,36.285 C5.75,36.591 5.992,36.833 6.298,36.904 C6.608,36.975 6.927,36.862 7.127,36.617 L9.473,34.271 C9.718,34.035 9.792,33.671 9.66,33.359 C9.531,33.046 9.218,32.846 8.88,32.853 C8.854,32.853 8.828,32.853 8.802,32.853 z M28.552,32.853 C28.242,32.907 27.994,33.133 27.907,33.433 C27.82,33.736 27.911,34.058 28.139,34.271 L30.486,36.617 C30.685,36.862 31.004,36.975 31.314,36.904 C31.62,36.833 31.862,36.591 31.933,36.285 C32.004,35.976 31.891,35.657 31.646,35.457 L29.3,33.111 C29.145,32.946 28.932,32.856 28.707,32.853 C28.681,32.853 28.655,32.853 28.629,32.853 C28.603,32.853 28.578,32.853 28.552,32.853 z M15.506,37.803 L22.106,37.803 L22.106,39.453 L17.981,39.453 C17.955,39.453 17.929,39.453 17.904,39.453 C17.878,39.453 17.852,39.453 17.826,39.453 C17.372,39.495 17.037,39.901 17.079,40.355 C17.121,40.81 17.527,41.145 17.981,41.103 L22.106,41.103 C22.106,41.57 21.748,41.928 21.281,41.928 L16.331,41.928 C15.864,41.928 15.506,41.57 15.506,41.103 C15.802,41.106 16.08,40.952 16.231,40.694 C16.379,40.436 16.379,40.12 16.231,39.862 C16.08,39.604 15.802,39.45 15.506,39.453 z" fill="#000000" id="Bulb_Symbol"/>
  </g>
  <g id="Temperature_Icon">
    <path d="M10.908,4.311 C10.888,4.314 10.868,4.32 10.85,4.325 C10.637,4.374 10.486,4.566 10.491,4.785 L10.491,7.543 C10.49,7.708 10.576,7.863 10.719,7.947 C10.863,8.03 11.039,8.03 11.183,7.947 C11.326,7.863 11.413,7.708 11.411,7.543 L11.411,4.785 C11.416,4.652 11.362,4.524 11.267,4.435 C11.17,4.343 11.039,4.298 10.908,4.311 z M4.357,7.012 C4.184,7.042 4.046,7.168 3.998,7.335 C3.949,7.504 3.999,7.683 4.127,7.802 L6.081,9.756 C6.192,9.892 6.37,9.955 6.542,9.915 C6.713,9.876 6.848,9.741 6.887,9.571 C6.927,9.398 6.864,9.22 6.727,9.109 L4.773,7.155 C4.678,7.053 4.54,7.001 4.4,7.012 C4.386,7.012 4.371,7.012 4.357,7.012 z M17.402,7.012 C17.297,7.026 17.2,7.078 17.129,7.155 L15.175,9.109 C15.038,9.22 14.975,9.398 15.015,9.571 C15.054,9.741 15.189,9.876 15.36,9.915 C15.532,9.955 15.71,9.892 15.821,9.756 L17.775,7.802 C17.919,7.665 17.96,7.452 17.876,7.272 C17.789,7.091 17.599,6.987 17.402,7.012 z M10.908,9.382 C10.894,9.386 10.879,9.391 10.865,9.396 C10.836,9.398 10.807,9.404 10.779,9.411 C10.773,9.416 10.77,9.42 10.764,9.425 C8.326,9.529 6.354,11.516 6.354,13.979 C6.354,16.51 8.421,18.577 10.951,18.577 C13.481,18.577 15.548,16.51 15.548,13.979 C15.548,11.525 13.593,9.546 11.167,9.425 C11.15,9.425 11.14,9.411 11.123,9.411 C11.077,9.393 11.028,9.384 10.98,9.382 C10.971,9.382 10.96,9.382 10.951,9.382 C10.937,9.382 10.922,9.382 10.908,9.382 z M10.922,10.302 C10.931,10.302 10.942,10.302 10.951,10.302 C10.965,10.302 10.98,10.302 10.994,10.302 C13.005,10.325 14.629,11.963 14.629,13.979 C14.629,16.012 12.984,17.657 10.951,17.657 C8.92,17.657 7.273,16.012 7.273,13.979 C7.273,11.957 8.904,10.318 10.922,10.302 z M1.627,13.52 C1.374,13.556 1.196,13.791 1.232,14.044 C1.268,14.297 1.503,14.475 1.757,14.439 L4.515,14.439 C4.68,14.441 4.835,14.355 4.919,14.211 C5.002,14.067 5.002,13.891 4.919,13.748 C4.835,13.604 4.68,13.518 4.515,13.52 L1.757,13.52 C1.742,13.52 1.728,13.52 1.713,13.52 C1.699,13.52 1.685,13.52 1.67,13.52 C1.656,13.52 1.642,13.52 1.627,13.52 z M17.258,13.52 C17.005,13.556 16.827,13.791 16.863,14.044 C16.899,14.297 17.134,14.475 17.387,14.439 L20.146,14.439 C20.311,14.441 20.465,14.355 20.55,14.211 C20.632,14.067 20.632,13.891 20.55,13.748 C20.465,13.604 20.311,13.518 20.146,13.52 L17.387,13.52 C17.373,13.52 17.358,13.52 17.344,13.52 C17.33,13.52 17.315,13.52 17.301,13.52 C17.287,13.52 17.272,13.52 17.258,13.52 z M6.354,18.059 C6.25,18.074 6.153,18.126 6.081,18.203 L4.127,20.157 C3.99,20.268 3.928,20.446 3.967,20.618 C4.007,20.789 4.141,20.924 4.312,20.963 C4.484,21.003 4.662,20.94 4.773,20.803 L6.727,18.85 C6.864,18.719 6.905,18.516 6.831,18.341 C6.76,18.167 6.585,18.056 6.397,18.059 C6.383,18.059 6.368,18.059 6.354,18.059 z M15.405,18.059 C15.232,18.09 15.094,18.216 15.045,18.383 C14.997,18.552 15.047,18.731 15.175,18.85 L17.129,20.803 C17.24,20.94 17.418,21.003 17.59,20.963 C17.761,20.924 17.895,20.789 17.935,20.618 C17.974,20.446 17.912,20.268 17.775,20.157 L15.821,18.203 C15.735,18.112 15.617,18.061 15.491,18.059 C15.476,18.059 15.462,18.059 15.448,18.059 C15.433,18.059 15.419,18.059 15.405,18.059 z M10.908,19.941 C10.888,19.945 10.868,19.95 10.85,19.956 C10.637,20.004 10.486,20.196 10.491,20.416 L10.491,23.174 C10.49,23.339 10.576,23.494 10.719,23.578 C10.863,23.661 11.039,23.661 11.183,23.578 C11.326,23.494 11.413,23.339 11.411,23.174 L11.411,20.416 C11.416,20.283 11.362,20.155 11.267,20.065 C11.17,19.974 11.039,19.929 10.908,19.941 z" fill="#000000" id="Sun_Symbol"/>
    <path d="M24.113,30.075 C19.725,32.608 18.218,38.231 20.752,42.619 C23.285,47.006 28.908,48.513 33.296,45.98 C34.427,45.327 35.364,44.466 36.093,43.477 C36.196,43.337 36.206,43.15 36.119,42.999 C36.032,42.848 35.864,42.763 35.692,42.782 C32.511,43.139 29.273,41.636 27.568,38.683 C25.863,35.731 26.181,32.175 28.08,29.599 C28.183,29.459 28.193,29.271 28.106,29.12 C28.019,28.97 27.852,28.885 27.679,28.903 C26.458,29.04 25.244,29.422 24.113,30.075 z M24.55,30.832 C25.302,30.398 26.097,30.14 26.904,29.962 C25.31,32.713 25.109,36.174 26.811,39.121 C28.512,42.067 31.61,43.624 34.788,43.619 C34.231,44.229 33.61,44.789 32.858,45.223 C28.881,47.519 23.806,46.159 21.509,42.182 C19.212,38.204 20.572,33.129 24.55,30.832 z" fill="#000000" id="Moon_Symbol"/>
    <path d="M11.212,32.9 L27.701,20.383" fill-opacity="0" stroke="#000000" stroke-width="1"/>
  </g>
  <g id="Meter">
    <path d="M42.332,2.022 L48.692,2.101" fill-opacity="0" stroke="#000000" stroke-width="1"/>
    <path d="M42.332,24.961 L48.692,25.039" fill-opacity="0" stroke="#000000" stroke-width="1"/>
    <path d="M43.981,6.65 L48.692,6.678" fill-opacity="0" stroke="#000000" stroke-width="1"/>
    <path d="M43.981,11.228 L48.692,11.256" fill-opacity="0" stroke="#000000" stroke-width="1"/>
    <path d="M43.981,15.805 L48.692,15.834" fill-opacity="0" stroke="#000000" stroke-width="1"/>
    <path d="M43.981,20.383 L48.692,20.411" fill-opacity="0" stroke="#000000" stroke-width="1"/>
    <path d="M42.332,47.899 L48.692,47.978" fill-opacity="0" stroke="#000000" stroke-width="1"/>
    <path d="M43.981,29.589 L48.692,29.617" fill-opacity="0" stroke="#000000" stroke-width="1"/>
    <path d="M43.981,34.166 L48.692,34.194" fill-opacity="0" stroke="#000000" stroke-width="1"/>
    <path d="M43.981,38.744 L48.692,38.772" fill-opacity="0" stroke="#000000" stroke-width="1"/>
    <path d="M43.981,43.322 L48.692,43.35" fill-opacity="0" stroke="#000000" stroke-width="1"/>
  </g>
</svg>
